PathFileType  4	(X/Y/Z) W:\OA_GaitRetraining\OpenSimAllSubjects\Subject_114\Gait\Week1\Files_W_HJCs\
DataRate	CameraRate	NumFrames	NumMarkers	Units	OrigDataRate	OrigDataStartFrame	OrigNumFrames
  100.0		  100.0		    6		     57		 mm	  100.0	      346	    460
Frame#	Time	r_knee			r_shank(antsup)			r_ankle			r_calc			r_5meta			r_toe			L_knee			L_shank(ant_sup)			L_ankle			L_calc			L_5meta			L_toe			r_mknee			r_mankle			L_mknee			L_mankle			r_sh2			r_sh3			r_sh4			L_sh2			L_sh3			r_thigh1			r_thigh2			r_thigh3			r_thigh4			r_thigh5			L_thigh1			L_thigh2			L_thigh3			L_thigh4			r.ASIS			r.PSIS			L.ASIS			L.PSIS			C7			R_Shoulder			L_Shoulder			R_Sternum			L_Sternum			R_HJC			L_HJC			R_HJC_reg			L_HJC_reg			midPSIS			midASIS			midHJC			midPelvis			R_KJC			L_KJC			R_AJC			L_AJC			R_AJC_proj			R_5meta_proj			R_toe_proj			L_AJC_proj			L_5meta_proj			L_toe_proj			
		X1	Y1	Z1	X2	Y2	Z2	X3	Y3	Z3	X4	Y4	Z4	X5	Y5	Z5	X6	Y6	Z6	X7	Y7	Z7	X8	Y8	Z8	X9	Y9	Z9	X10	Y10	Z10	X11	Y11	Z11	X12	Y12	Z12	X13	Y13	Z13	X14	Y14	Z14	X15	Y15	Z15	X16	Y16	Z16	X17	Y17	Z17	X18	Y18	Z18	X19	Y19	Z19	X20	Y20	Z20	X21	Y21	Z21	X22	Y22	Z22	X23	Y23	Z23	X24	Y24	Z24	X25	Y25	Z25	X26	Y26	Z26	X27	Y27	Z27	X28	Y28	Z28	X29	Y29	Z29	X30	Y30	Z30	X31	Y31	Z31	X32	Y32	Z32	X33	Y33	Z33	X34	Y34	Z34	X35	Y35	Z35	X36	Y36	Z36	X37	Y37	Z37	X38	Y38	Z38	X39	Y39	Z39	X40	Y40	Z40	X41	Y41	Z41	X42	Y42	Z42	X43	Y43	Z43	X44	Y44	Z44	X45	Y45	Z45	X46	Y46	Z46	X47	Y47	Z47	X48	Y48	Z48	X49	Y49	Z49	X50	Y50	Z50	X51	Y51	Z51	X52	Y52	Z52	X53	Y53	Z53	X54	Y54	Z54	X55	Y55	Z55	X56	Y56	Z56	X57	Y57	Z57	

346	3.45000	1164.574	501.872	-321.681	1218.277	435.605	-325.119	1250.217	111.764	-324.489	1194.679	68.286	-372.086	1361.251	40.590	-301.566	1429.700	80.812	-361.636	981.598	486.478	-692.639	990.655	419.953	-666.929	808.429	115.906	-658.941	739.897	74.980	-599.765	893.816	42.543	-692.415	967.434	78.441	-641.300	1219.730	499.669	-461.166	1290.828	128.417	-413.584	990.551	471.553	-541.236	837.995	122.281	-563.427	1236.388	326.624	-313.519	1138.101	421.274	-315.747	1156.183	307.119	-308.630	911.350	453.171	-700.165	878.397	336.386	-707.715	1129.427	780.373	-293.413	1170.513	688.332	-299.809	1129.067	630.697	-290.271	1025.988	734.967	-294.634	1068.214	633.581	-304.490	1105.879	710.892	-705.326	1086.850	585.615	-679.160	1015.126	727.947	-752.993	976.964	602.504	-720.650	1150.455	953.257	-344.347	908.289	1018.538	-465.020	1158.427	948.486	-687.967	904.968	1023.752	-553.295	956.461	1398.683	-519.512	1061.892	1406.123	-407.289	1056.994	1384.575	-647.124	1108.647	1328.674	-503.598	1108.810	1330.612	-550.816	1042.243	864.069	-425.602	1038.863	845.883	-610.018	1062.260	849.995	-397.615	1053.745	863.362	-623.932	906.628	1021.145	-509.158	1154.441	950.872	-516.157	1040.553	854.976	-517.810	1030.535	986.008	-512.657	1192.152	500.771	-391.423	986.074	479.016	-616.937	1270.522	120.090	-369.037	823.212	119.094	-611.184	1270.522	0.000	-369.037	1361.251	0.000	-301.566	1429.700	0.000	-361.636	823.212	0.000	-611.184	893.816	0.000	-692.415	967.434	0.000	-641.300
347	3.46000	1164.592	501.898	-321.727	1218.270	435.371	-325.198	1250.130	111.645	-324.577	1194.662	68.352	-372.153	1361.311	40.442	-301.704	1429.666	80.440	-361.802	981.669	486.519	-692.672	990.651	419.896	-666.974	808.435	115.875	-658.911	739.954	75.050	-599.739	893.848	42.558	-692.469	967.446	78.420	-641.272	1219.732	499.712	-461.129	1290.812	128.434	-413.590	990.685	471.817	-540.934	838.045	122.327	-563.394	1236.392	326.672	-313.512	1138.023	421.291	-315.733	1156.164	307.088	-308.681	911.395	453.197	-700.215	878.521	336.391	-707.761	1129.456	780.454	-293.406	1170.529	688.420	-299.788	1129.009	630.612	-290.301	1026.030	734.943	-294.615	1068.207	633.598	-304.429	1106.028	710.937	-705.230	1086.973	585.718	-679.122	1015.281	727.995	-753.071	976.984	602.591	-720.666	1150.417	953.272	-344.321	908.193	1018.532	-465.045	1158.510	948.478	-687.928	904.943	1023.757	-553.319	956.532	1398.762	-519.610	1061.869	1406.139	-407.355	1056.904	1384.607	-647.211	1108.635	1329.022	-503.951	1108.775	1330.678	-550.886	1042.210	864.075	-425.591	1038.888	845.882	-610.007	1062.195	849.964	-397.675	1053.863	863.360	-623.991	906.568	1021.144	-509.182	1154.464	950.875	-516.125	1040.549	854.978	-517.799	1030.516	986.010	-512.653	1192.162	500.805	-391.428	986.177	479.168	-616.803	1270.471	120.039	-369.084	823.240	119.101	-611.153	1270.471	0.000	-369.084	1361.311	0.000	-301.704	1429.666	0.000	-361.802	823.240	0.000	-611.153	893.848	0.000	-692.469	967.446	0.000	-641.272
348	3.47000	1164.597	501.875	-321.648	1218.226	435.362	-325.241	1250.229	111.851	-324.488	1194.668	68.354	-372.205	1361.248	40.652	-301.503	1429.694	80.940	-361.637	981.806	486.573	-692.730	990.706	419.961	-666.890	808.417	115.984	-658.951	739.932	75.118	-599.794	893.812	42.534	-692.475	967.492	78.372	-641.273	1219.770	499.745	-461.124	1290.804	128.373	-413.612	990.681	471.586	-541.289	838.010	122.297	-563.488	1236.407	326.688	-313.481	1137.928	421.195	-315.711	1156.198	307.137	-308.639	911.375	453.299	-700.205	878.478	336.480	-707.859	1129.433	780.391	-293.353	1170.521	688.371	-299.714	1128.992	630.686	-290.203	1026.030	734.943	-294.615	1068.201	633.567	-304.458	1106.011	710.944	-705.212	1087.069	585.747	-679.086	1015.363	728.072	-752.899	977.048	602.609	-720.626	1150.353	953.273	-344.307	908.267	1018.534	-465.000	1158.523	948.469	-687.909	904.921	1023.810	-553.268	956.582	1398.759	-519.594	1061.837	1406.213	-407.373	1056.953	1384.591	-647.201	1108.635	1329.022	-503.951	1108.808	1330.818	-550.869	1042.187	864.080	-425.564	1038.865	845.897	-609.981	1062.313	849.886	-397.618	1053.735	863.410	-623.915	906.594	1021.172	-509.134	1154.438	950.871	-516.108	1040.526	854.989	-517.772	1030.516	986.021	-512.621	1192.183	500.810	-391.386	986.243	479.080	-617.009	1270.517	120.112	-369.050	823.214	119.140	-611.220	1270.517	0.000	-369.050	1361.248	0.000	-301.503	1429.694	0.000	-361.637	823.214	0.000	-611.220	893.812	0.000	-692.475	967.492	0.000	-641.273
349	3.48000	1164.524	501.894	-321.732	1218.232	435.534	-325.084	1250.181	111.741	-324.527	1194.671	68.417	-372.060	1361.254	40.433	-301.649	1429.692	80.875	-361.662	981.902	486.583	-692.677	990.734	420.095	-667.233	808.497	115.994	-658.849	739.995	75.239	-599.809	893.821	42.501	-692.466	967.515	78.372	-641.301	1219.777	499.764	-461.111	1290.824	128.464	-413.637	990.761	471.901	-541.119	838.056	122.264	-563.414	1236.281	326.607	-313.462	1137.872	421.115	-315.805	1156.122	307.035	-308.766	911.414	453.300	-700.314	878.500	336.545	-707.935	1129.400	780.378	-293.334	1170.488	688.345	-299.710	1128.937	630.640	-290.180	1025.943	734.964	-294.628	1068.169	633.541	-304.442	1106.102	710.986	-705.183	1087.198	585.879	-678.994	1015.403	728.083	-752.878	977.106	602.643	-720.643	1150.295	953.292	-344.286	908.274	1018.522	-464.977	1158.650	948.546	-687.839	904.949	1023.804	-553.293	956.490	1398.842	-519.666	1061.834	1406.226	-407.365	1056.846	1384.631	-647.304	1108.635	1329.022	-503.951	1108.764	1330.458	-551.527	1042.207	864.086	-425.561	1038.960	845.937	-609.983	1062.329	849.932	-397.616	1053.812	863.466	-623.886	906.611	1021.163	-509.135	1154.473	950.919	-516.062	1040.584	855.012	-517.772	1030.542	986.041	-512.599	1192.150	500.829	-391.422	986.332	479.242	-616.898	1270.502	120.102	-369.082	823.277	119.129	-611.131	1270.502	0.000	-369.082	1361.254	0.000	-301.649	1429.692	0.000	-361.662	823.277	0.000	-611.131	893.821	0.000	-692.466	967.515	0.000	-641.301
350	3.49000	1164.427	501.857	-321.739	1218.192	435.488	-325.195	1250.141	111.678	-324.563	1194.656	68.357	-372.185	1361.253	40.510	-301.617	1429.667	80.948	-361.573	981.894	486.616	-692.675	990.830	420.071	-666.919	808.440	116.153	-658.941	739.988	75.296	-599.811	893.866	42.501	-692.465	967.578	78.319	-641.249	1219.776	499.779	-461.118	1290.844	128.433	-413.594	990.748	471.711	-541.140	838.100	122.342	-563.446	1236.300	326.658	-313.514	1137.799	421.165	-315.759	1156.165	307.136	-308.691	911.537	453.364	-700.265	878.617	336.640	-708.031	1129.394	780.365	-293.316	1170.435	688.387	-299.666	1128.864	630.649	-290.206	1025.861	734.968	-294.624	1068.101	633.603	-304.447	1106.126	710.954	-705.196	1087.320	585.882	-679.014	1015.479	728.151	-753.092	977.096	602.682	-720.678	1150.252	953.336	-344.246	908.276	1018.554	-465.089	1158.708	948.574	-687.889	904.951	1023.921	-553.279	956.546	1398.920	-519.690	1061.844	1406.355	-407.382	1056.887	1384.647	-647.267	1108.635	1329.022	-503.951	1108.761	1330.885	-550.947	1042.175	864.136	-425.590	1038.967	845.995	-610.013	1062.385	849.766	-397.696	1053.852	863.537	-624.011	906.613	1021.238	-509.184	1154.480	950.955	-516.067	1040.571	855.066	-517.802	1030.547	986.096	-512.626	1192.101	500.818	-391.428	986.321	479.163	-616.908	1270.492	120.056	-369.079	823.270	119.248	-611.194	1270.492	0.000	-369.079	1361.253	0.000	-301.617	1429.667	0.000	-361.573	823.270	0.000	-611.194	893.866	0.000	-692.465	967.578	0.000	-641.249
351	3.50000	1164.356	501.921	-321.685	1218.097	435.480	-325.044	1250.228	111.776	-324.575	1194.632	68.342	-372.148	1361.248	40.652	-301.503	1429.692	80.945	-361.664	981.907	486.665	-692.706	990.938	420.095	-666.774	808.665	116.058	-658.992	740.015	75.371	-599.854	893.875	42.436	-692.472	967.607	78.340	-641.280	1219.784	499.859	-461.089	1290.817	128.429	-413.628	990.796	471.529	-541.464	838.119	122.357	-563.554	1236.251	326.608	-313.508	1137.700	420.990	-315.844	1156.106	307.080	-308.734	911.577	453.453	-700.303	878.637	336.651	-708.023	1129.294	780.351	-293.253	1170.350	688.376	-299.643	1128.761	630.653	-290.249	1025.639	734.937	-294.822	1067.915	633.554	-304.530	1106.262	711.048	-705.132	1087.392	586.052	-678.869	1015.585	728.206	-753.061	977.162	602.695	-720.661	1150.228	953.397	-344.197	908.282	1018.570	-465.036	1158.843	948.709	-687.796	904.983	1023.921	-553.281	956.470	1398.985	-519.744	1061.811	1406.342	-407.393	1056.895	1384.704	-647.301	1108.635	1329.022	-503.951	1108.727	1330.899	-550.978	1042.227	864.175	-425.563	1039.090	846.072	-609.991	1062.410	849.897	-397.645	1053.948	863.618	-623.939	906.633	1021.245	-509.159	1154.535	951.053	-515.997	1040.659	855.124	-517.777	1030.584	986.149	-512.578	1192.070	500.890	-391.387	986.352	479.097	-617.085	1270.522	120.102	-369.101	823.392	119.208	-611.273	1270.522	0.000	-369.101	1361.248	0.000	-301.503	1429.692	0.000	-361.664	823.392	0.000	-611.273	893.875	0.000	-692.472	967.607	0.000	-641.280
